<svg width="20" height="20" viewBox="0 0 20 20" fill="none" xmlns="http://www.w3.org/2000/svg">
<path fill-rule="evenodd" clip-rule="evenodd" d="M10 19C14.9706 19 19 14.9706 19 10C19 5.02944 14.9706 1 10 1C5.02944 1 1 5.02944 1 10C1 14.9706 5.02944 19 10 19ZM7.46979 7.46967C7.76268 7.17678 8.23756 7.17678 8.53045 7.46967L10.0001 8.93928L11.4697 7.46967C11.7626 7.17678 12.2374 7.17678 12.5303 7.46967C12.8232 7.76256 12.8232 8.23744 12.5303 8.53033L11.0607 9.99994L12.5305 11.4697C12.8233 11.7626 12.8233 12.2374 12.5305 12.5303C12.2376 12.8232 11.7627 12.8232 11.4698 12.5303L10.0001 11.0606L8.53033 12.5303C8.23744 12.8232 7.76256 12.8232 7.46967 12.5303C7.17678 12.2374 7.17678 11.7626 7.46967 11.4697L8.9394 9.99994L7.46979 8.53033C7.1769 8.23744 7.1769 7.76256 7.46979 7.46967Z" fill="black"/>
</svg>
